<?xml version="1.0" encoding="utf-8"?>
<!-- Generator: Adobe Illustrator 23.1.0, SVG Export Plug-In . SVG Version: 6.00 Build 0)  -->
<svg version="1.1" id="Layer_1" xmlns="http://www.w3.org/2000/svg" xmlns:xlink="http://www.w3.org/1999/xlink" x="0px" y="0px"
	 viewBox="0 0 155.57 155.61" style="enable-background:new 0 0 155.57 155.61;" xml:space="preserve">
<style type="text/css">
	.st0{font-family:'Merriweather-Light';}
	.st1{font-size:14px;}
	.st2{font-size:13.9999px;}
	.st3{clip-path:url(#SVGID_2_);}
	.st4{clip-path:url(#SVGID_4_);}
	.st5{clip-path:url(#SVGID_6_);}
	.st6{font-size:14.0001px;}
	.st7{clip-path:url(#SVGID_8_);}
</style>
<text transform="matrix(0.5498 -0.8353 0.8353 0.5498 20.6748 45.2075)" class="st0 st1">S</text>
<text transform="matrix(0.6598 -0.7514 0.7514 0.6598 25.3242 38.0956)" class="st0 st2">T</text>
<text transform="matrix(0.7602 -0.6497 0.6497 0.7602 31.7725 30.8054)" class="st0 st1">Y</text>
<text transform="matrix(0.8427 -0.5384 0.5384 0.8427 38.7772 24.8455)" class="st0 st1">L</text>
<text transform="matrix(0.9096 -0.4155 0.4155 0.9096 46.4199 19.9701)" class="st0 st1">E</text>
<text transform="matrix(0.9466 -0.3224 0.3224 0.9466 55.0487 16.2071)" class="st0 st1"> </text>
<g>
	<defs>
		<rect id="SVGID_1_" width="155.57" height="155.61"/>
	</defs>
	<clipPath id="SVGID_2_">
		<use xlink:href="#SVGID_1_"  style="overflow:visible;"/>
	</clipPath>
	<g class="st3">
		<text transform="matrix(0.975 -0.2222 0.2222 0.975 58.4551 14.8917)" class="st0 st1">A</text>
	</g>
	<g class="st3">
		<text transform="matrix(0.998 -0.0632 0.0632 0.998 68 12.6705)" class="st0 st1">N</text>
	</g>
	<g class="st3">
		<text transform="matrix(0.9947 0.1026 -0.1026 0.9947 79.3291 11.9903)" class="st0 st1">D</text>
	</g>
	<g class="st3">
		<text transform="matrix(0.9774 0.2116 -0.2116 0.9774 90.1074 13.3189)" class="st0 st1"> </text>
	</g>
	<g class="st3">
		<text transform="matrix(0.9514 0.3081 -0.3081 0.9514 93.6915 13.9634)" class="st0 st1">C</text>
	</g>
</g>
<text transform="matrix(0.8945 0.4471 -0.4471 0.8945 102.5714 16.8199)" class="st0 st1">O</text>
<text transform="matrix(0.7986 0.6019 -0.6019 0.7986 111.796 21.2673)" class="st0 st1">M</text>
<text transform="matrix(0.6847 0.7289 -0.7289 0.6847 122.656 29.7369)" class="st0 st1">F</text>
<text transform="matrix(0.5722 0.8201 -0.8201 0.5722 128.7504 36.1711)" class="st0 st1">O</text>
<text transform="matrix(0.4399 0.898 -0.898 0.4399 134.6055 44.6137)" class="st0 st1">R</text>
<g>
	<defs>
		<rect id="SVGID_3_" width="155.57" height="155.61"/>
	</defs>
	<clipPath id="SVGID_4_">
		<use xlink:href="#SVGID_3_"  style="overflow:visible;"/>
	</clipPath>
	<g class="st4">
		<text transform="matrix(0.3003 0.9538 -0.9538 0.3003 138.9479 53.5347)" class="st0 st1">T</text>
	</g>
	<g class="st4">
		<text transform="matrix(0.2005 0.9797 -0.9797 0.2005 141.7288 62.9473)" class="st0 st1"> </text>
	</g>
	<g class="st4">
		<text transform="matrix(0.1054 0.9944 -0.9944 0.1054 142.5702 66.5084)" class="st0 st1">F</text>
	</g>
	<g class="st4">
		<text transform="matrix(-0.0384 0.9993 -0.9993 -0.0384 143.5376 75.3292)" class="st0 st1">O</text>
	</g>
	<g class="st4">
		<text transform="matrix(-0.1905 0.9817 -0.9817 -0.1905 143.1149 85.6056)" class="st0 st1">R</text>
	</g>
	<g class="st4">
		<text transform="matrix(-0.2918 0.9565 -0.9565 -0.2918 141.0319 95.3829)" class="st0 st1"> </text>
	</g>
</g>
<text transform="matrix(-0.386 0.9225 -0.9225 -0.386 140.0883 98.9146)" class="st0 st1">E</text>
<text transform="matrix(-0.5141 0.8577 -0.8577 -0.5141 136.4755 107.5173)" class="st0 st1">V</text>
<text transform="matrix(-0.6307 0.776 -0.776 -0.6307 131.5876 115.6249)" class="st0 st1">E</text>
<text transform="matrix(-0.7365 0.6764 -0.6764 -0.7365 125.7239 122.849)" class="st0 st1">R</text>
<text transform="matrix(-0.8265 0.5629 -0.5629 -0.8265 118.3736 129.5413)" class="st0 st1">Y</text>
<text transform="matrix(-0.8778 0.479 -0.479 -0.8778 110.6211 134.6352)" class="st0 st1"> </text>
<text transform="matrix(-0.9186 0.3952 -0.3952 -0.9186 107.4698 136.4688)" class="st0 st1">S</text>
<g>
	<defs>
		<rect id="SVGID_5_" width="155.57" height="155.61"/>
	</defs>
	<clipPath id="SVGID_6_">
		<use xlink:href="#SVGID_5_"  style="overflow:visible;"/>
	</clipPath>
	<g class="st5">
		<text transform="matrix(-0.9636 0.2672 -0.2672 -0.9636 99.678 139.8296)" class="st0 st1">P</text>
	</g>
	<g class="st5">
		<text transform="matrix(-0.9922 0.1245 -0.1245 -0.9922 90.8003 142.2957)" class="st0 st1">A</text>
	</g>
	<g class="st5">
		<text transform="matrix(-0.9998 -0.019 0.019 -0.9998 81.0515 143.4814)" class="st0 st1">C</text>
	</g>
	<g class="st5">
		<text transform="matrix(-0.9872 -0.1596 0.1596 -0.9872 71.7135 143.2877)" class="st0 st1">E</text>
	</g>
	<g class="st5">
		<text transform="matrix(-0.9664 -0.2571 0.2571 -0.9664 62.4722 141.6331)" class="st0 st1"> </text>
	</g>
	<g class="st5">
		<text transform="matrix(-0.9447 -0.3279 0.3279 -0.9447 58.8875 140.7087)" class="st0 st1">I</text>
	</g>
</g>
<text transform="matrix(-0.8933 -0.4494 0.4494 -0.8933 53.3165 138.9499)" class="st0 st1">N</text>
<text transform="matrix(-0.8361 -0.5486 0.5486 -0.8361 43.2232 133.6059)" class="st0 st1"> </text>
<text transform="matrix(-0.7784 -0.6278 0.6278 -0.7784 40.1052 131.7054)" class="st0 st1">Y</text>
<text transform="matrix(-0.6775 -0.7355 0.7355 -0.6775 32.9239 125.9415)" class="st0 st1">O</text>
<text transform="matrix(-0.5539 -0.8326 0.8326 -0.5539 25.9759 118.3915)" class="st0 st1">U</text>
<text transform="matrix(-0.4179 -0.9085 0.9085 -0.4179 20.1689 109.5908)" class="st0 st6">R</text>
<text transform="matrix(-0.3209 -0.9471 0.9471 -0.3209 16.1567 100.4342)" class="st0 st1"> </text>
<g>
	<defs>
		<rect id="SVGID_7_" width="155.57" height="155.61"/>
	</defs>
	<clipPath id="SVGID_8_">
		<use xlink:href="#SVGID_7_"  style="overflow:visible;"/>
	</clipPath>
	<g class="st7">
		<text transform="matrix(-0.2066 -0.9784 0.9784 -0.2066 14.7772 97.0629)" class="st0 st1">H</text>
	</g>
	<g class="st7">
		<text transform="matrix(-0.0415 -0.9991 0.9991 -0.0415 12.4365 85.5977)" class="st0 st1">O</text>
	</g>
	<g class="st7">
		<text transform="matrix(0.1386 -0.9903 0.9903 0.1386 11.8633 75.3647)" class="st0 st1">M</text>
	</g>
	<g class="st7">
		<text transform="matrix(0.3099 -0.9508 0.9508 0.3099 13.9796 61.7641)" class="st0 st1">E</text>
	</g>
</g>
</svg>
